<svg width="50" height="50" viewBox="0 0 50 50" fill="none" xmlns="http://www.w3.org/2000/svg">
    <path d="M42.6875 15.6667C42.6756 15.6118 42.6756 15.5549 42.6875 15.5C42.6773 15.4519 42.6773 15.4023 42.6875 15.3542V15.1667L42.5625 14.8542C42.5117 14.7689 42.4485 14.6917 42.375 14.625L42.1875 14.4583H42.0833L33.875 9.27085L26.125 4.47918C25.9457 4.33695 25.7405 4.23083 25.5208 4.16668H25.3541C25.1679 4.1356 24.9778 4.1356 24.7916 4.16668H24.5833C24.3413 4.22021 24.1093 4.31161 23.8958 4.43752L8.33329 14.125L8.14579 14.2708L7.95829 14.4375L7.74996 14.5833L7.64579 14.7083L7.52079 15.0208V15.2083V15.3333C7.50056 15.4715 7.50056 15.6119 7.52079 15.75V33.9375C7.52008 34.2916 7.60962 34.64 7.78094 34.9498C7.95226 35.2596 8.19972 35.5207 8.49996 35.7083L24.125 45.375L24.4375 45.5H24.6041C24.9566 45.6118 25.335 45.6118 25.6875 45.5H25.8541L26.1666 45.375L41.6666 35.8542C41.9669 35.6665 42.2143 35.4055 42.3856 35.0956C42.557 34.7858 42.6465 34.4374 42.6458 34.0833V15.8958C42.6458 15.8958 42.6875 15.75 42.6875 15.6667ZM25 8.68752L28.7083 10.9792L17.0625 18.1875L13.3333 15.8958L25 8.68752ZM22.9166 39.9375L11.4583 32.9375V19.625L22.9166 26.7083V39.9375ZM25 23.0417L21.0208 20.6458L32.6666 13.4167L36.6666 15.8958L25 23.0417ZM38.5416 32.875L27.0833 40V26.7083L38.5416 19.625V32.875Z" fill="#2e1d15"/>
</svg>
