<svg width="50" height="50" viewBox="0 0 50 50" fill="none" xmlns="http://www.w3.org/2000/svg">
    <path d="M47.6041 38.4375C42.8125 30.4167 30.9375 22.3958 24.4791 21.5625C24.1275 21.5093 23.768 21.547 23.4351 21.672C23.1021 21.797 22.8067 22.0052 22.5769 22.2767C22.3472 22.5482 22.1908 22.874 22.1226 23.2231C22.0544 23.5721 22.0768 23.9328 22.1875 24.2708C22.3241 24.6411 22.563 24.965 22.8765 25.2047C23.19 25.4445 23.5652 25.5902 23.9583 25.625C26.875 26.1458 31.875 28.75 36.3541 32.2917C32.6041 35.8333 26.9791 37.3958 22.3958 36.0417C14.375 33.75 10.3125 23.4375 7.39581 14.8958L15.3125 13.75C22.1875 12.5 28.125 11.4583 32.0833 14.1667C36.0416 16.875 36.25 19.375 36.875 22.8125L39.5833 24.6875C39.7451 24.8106 39.9394 24.8836 40.1422 24.8976C40.345 24.9117 40.5475 24.866 40.7247 24.7663C40.9018 24.6667 41.046 24.5173 41.1393 24.3368C41.2327 24.1562 41.2711 23.9522 41.25 23.75C40.625 18.8542 39.0625 13.9583 34.4791 10.8333C29.8958 7.70835 22.0833 8.33335 14.5833 9.58335C11.2458 10.239 7.87152 10.6912 4.47914 10.9375H3.12497C2.95735 10.9195 2.78796 10.9469 2.63464 11.0171C2.48133 11.0872 2.34976 11.1974 2.25379 11.336C2.15783 11.4746 2.10102 11.6365 2.08935 11.8047C2.07768 11.9729 2.11157 12.1411 2.18747 12.2917L2.60414 13.5417C5.83331 23.3333 10.3125 36.7708 21.1458 40C22.6743 40.4122 24.2502 40.6223 25.8333 40.625C30.9483 40.5817 35.8586 38.6101 39.5833 35.1042C41.2856 36.7643 42.7888 38.6171 44.0625 40.625C44.234 40.9441 44.4899 41.2099 44.8021 41.3936C45.1144 41.5773 45.4711 41.6717 45.8333 41.6667C46.3174 41.6743 46.7914 41.5285 47.1875 41.25C47.5806 40.9077 47.8387 40.4363 47.915 39.9207C47.9914 39.405 47.8812 38.8791 47.6041 38.4375V38.4375Z" fill="#2e1d15"/>
</svg>
