<svg width="50" height="54" viewBox="0 0 50 54" fill="none" xmlns="http://www.w3.org/2000/svg">
    <path d="M43.3014 35.8875C39.9379 34.118 36.7484 32.8615 33.9259 32.2567C35.2412 30.5789 36.2376 28.5894 36.7552 26.4825C38.006 25.9718 38.8899 24.7428 38.8899 23.3104V18.0085C38.8899 16.7005 38.153 15.5621 37.0727 14.9852C36.3591 9.01561 30.9496 4.16666 25.0007 4.16666C19.052 4.16666 13.6427 9.01529 12.9287 14.9846C11.8486 15.5615 11.1117 16.6999 11.1117 18.0077V23.3114C11.1117 24.7437 11.9955 25.9716 13.246 26.4819C13.7636 28.5889 14.76 30.5785 16.0753 32.2565C13.2535 32.8613 10.0638 34.118 6.70064 35.8872C5.1437 36.7068 4.16699 38.3243 4.16699 40.0833V44.0972C4.16699 45.056 4.94424 45.8332 5.90305 45.8332H44.0968C45.0556 45.8332 45.8328 45.056 45.8328 44.0972V40.0833C45.8329 38.3242 44.8578 36.7068 43.3014 35.8875ZM16.3203 16.3192C16.3203 11.6974 20.5079 7.63876 25.0007 7.63876C29.4935 7.63876 33.6811 11.6974 33.6811 16.3192V23.2635C33.6811 23.9788 33.5979 24.6928 33.4443 25.3928C31.0587 26.1515 27.8314 26.7357 25.0013 26.7357C24.0425 26.7357 23.2652 27.5129 23.2652 28.4717C23.2652 29.4305 24.0425 30.2078 25.0013 30.2078C27.1877 30.2078 29.5434 29.9089 31.6813 29.4456C30.9516 30.5218 30.0648 31.4591 29.0937 32.1763C29.0455 32.2039 28.9982 32.2331 28.9526 32.2655C27.9868 32.9518 26.9715 33.398 25.9706 33.5778C25.6332 33.6372 25.376 33.6678 25.1494 33.6771C25.0998 33.6785 25.0503 33.68 25.0007 33.68C24.9497 33.68 24.8988 33.6786 24.8478 33.677C24.6235 33.6677 24.3736 33.6385 24.0797 33.5879C23.0302 33.3979 22.0149 32.9518 21.0491 32.2655C21.0031 32.2329 20.9554 32.2034 20.9067 32.1756C18.3135 30.26 16.3203 26.7754 16.3203 23.2636V16.3192V16.3192ZM42.3608 42.3611H7.63918V40.0834C7.63918 39.6136 7.90171 39.179 8.31763 38.96C12.0182 37.0132 15.4391 35.7616 18.1619 35.4168H19.4969C21.1134 36.4621 22.9093 37.0949 24.7491 37.148C24.8329 37.1509 24.9165 37.153 25 37.153C25.0835 37.153 25.167 37.1509 25.2507 37.148C27.091 37.0952 28.8874 36.4623 30.5044 35.4168H31.8381C34.5622 35.7616 37.9831 37.0131 41.6845 38.9602C42.0991 39.1785 42.3608 39.6126 42.3608 40.0834V42.3611Z" fill="#2e1d15"/>
</svg>
