<svg width="50" height="50" viewBox="0 0 50 50" fill="none" xmlns="http://www.w3.org/2000/svg">
    <path d="M46.4061 25.606H44.6356V21.9271C44.6356 19.4619 42.6301 17.4563 40.1648 17.4563H35.3511V8.99698H0V37.4362H4.5999C5.25146 39.5014 7.18467 41.0031 9.4624 41.0031C11.7401 41.0031 13.6733 39.5014 14.3249 37.4362H32.2895H35.351H36.3338C36.9854 39.5014 38.9186 41.0031 41.1963 41.0031C43.474 41.0031 45.4072 39.5014 46.0588 37.4362H50V29.2C50 27.2182 48.3877 25.606 46.4061 25.606ZM9.4624 37.9416C8.33965 37.9416 7.42627 37.0281 7.42627 35.9055C7.42627 34.7827 8.33975 33.8693 9.4624 33.8693C10.5852 33.8693 11.4986 34.7828 11.4986 35.9055C11.4986 37.0282 10.5852 37.9416 9.4624 37.9416ZM32.2895 34.3747H14.3253C14.3031 34.3046 14.2794 34.2354 14.2543 34.1666C14.2476 34.148 14.2401 34.1297 14.2331 34.1111C14.213 34.0579 14.1923 34.0048 14.1704 33.9524C14.1604 33.9284 14.15 33.9047 14.1396 33.881C14.1189 33.8333 14.0975 33.7859 14.0754 33.7391C14.0645 33.7159 14.0535 33.6928 14.0423 33.6696C14.0171 33.6181 13.9907 33.5673 13.9638 33.5168C13.955 33.5003 13.9466 33.4836 13.9378 33.4672C13.9013 33.4005 13.8634 33.3346 13.8241 33.2696C13.8175 33.2586 13.8103 33.248 13.8035 33.237C13.7705 33.1835 13.7367 33.1307 13.7018 33.0785C13.6885 33.0587 13.6749 33.0394 13.6614 33.0197C13.6314 32.9762 13.6008 32.9331 13.5694 32.8904C13.5547 32.8703 13.5398 32.8503 13.5247 32.8304C13.4913 32.7864 13.4571 32.7431 13.4224 32.7002C13.4094 32.6842 13.3968 32.668 13.3836 32.6522C13.3351 32.5937 13.2854 32.5361 13.2343 32.4799C13.2336 32.4791 13.2328 32.4783 13.2321 32.4776C13.1822 32.4229 13.131 32.3693 13.0787 32.3168C13.0633 32.3013 13.0475 32.2862 13.0318 32.2709C12.9932 32.2329 12.9541 32.1955 12.9143 32.1588C12.8961 32.1421 12.8777 32.1254 12.8594 32.1089C12.8192 32.073 12.7785 32.0379 12.7374 32.0031C12.7202 31.9888 12.7033 31.9741 12.6859 31.96C12.6321 31.9159 12.5775 31.873 12.522 31.831C12.5174 31.8274 12.513 31.8238 12.5084 31.8204C12.4475 31.7749 12.3854 31.7309 12.3225 31.6881C12.3062 31.677 12.2893 31.6663 12.2729 31.6555C12.2261 31.6244 12.1791 31.5941 12.1313 31.5647C12.1101 31.5515 12.0886 31.5387 12.0671 31.5259C12.0218 31.4988 11.9761 31.4725 11.93 31.4469C11.9088 31.4351 11.8875 31.4232 11.8661 31.4116C11.8125 31.3828 11.7582 31.3551 11.7034 31.3282C11.6898 31.3216 11.6765 31.3145 11.6628 31.3078C11.594 31.2747 11.5243 31.2433 11.4539 31.2132C11.4381 31.2065 11.4221 31.2004 11.4063 31.1938C11.3516 31.1711 11.2966 31.1492 11.2409 31.1284C11.217 31.1194 11.193 31.1109 11.1688 31.1024C11.1195 31.0849 11.0698 31.0681 11.0198 31.052C10.9947 31.0439 10.9696 31.0358 10.9444 31.0282C10.8904 31.0118 10.8361 30.9965 10.7814 30.9818C10.761 30.9765 10.7409 30.9704 10.7204 30.9652C10.6455 30.9462 10.5699 30.9285 10.4938 30.9128C10.4815 30.9103 10.4689 30.9083 10.4567 30.9059C10.3927 30.8931 10.3282 30.8816 10.2634 30.8713C10.2379 30.8672 10.2121 30.8639 10.1865 30.8602C10.1336 30.8526 10.0803 30.8458 10.0269 30.8398C9.99902 30.8367 9.971 30.8337 9.94307 30.8311C9.88838 30.826 9.8333 30.8219 9.77803 30.8185C9.75293 30.8169 9.72803 30.8149 9.70283 30.8139C9.62305 30.8102 9.54307 30.8077 9.4623 30.8077C9.38164 30.8077 9.30156 30.8101 9.22178 30.8139C9.19658 30.8151 9.17168 30.8169 9.14658 30.8186C9.09141 30.8219 9.03633 30.826 8.98164 30.8311C8.95361 30.8337 8.92559 30.8366 8.89775 30.8398C8.84424 30.8457 8.79121 30.8525 8.73828 30.8601C8.7126 30.8638 8.68682 30.8672 8.66123 30.8712C8.59648 30.8815 8.53223 30.8931 8.46836 30.9057C8.45596 30.9081 8.44326 30.9101 8.43076 30.9127C8.35459 30.9284 8.2791 30.9461 8.2042 30.9651C8.18359 30.9703 8.16328 30.9764 8.14277 30.9818C8.08828 30.9964 8.03408 31.0117 7.98027 31.028C7.95488 31.0357 7.92969 31.0439 7.90449 31.0521C7.85469 31.0681 7.80518 31.0849 7.75605 31.1024C7.73184 31.1109 7.70762 31.1195 7.6835 31.1285C7.62822 31.1492 7.57334 31.171 7.51885 31.1936C7.50273 31.2002 7.48643 31.2065 7.47041 31.2133C7.4001 31.2433 7.33047 31.2747 7.26172 31.3078C7.24785 31.3145 7.23428 31.3217 7.22041 31.3285C7.16592 31.3553 7.11191 31.3829 7.05859 31.4116C7.03691 31.4232 7.01572 31.4352 6.99434 31.4472C6.94834 31.4727 6.90283 31.4989 6.85771 31.5259C6.83604 31.5389 6.81445 31.5517 6.79297 31.5649C6.74551 31.5942 6.69853 31.6244 6.65215 31.6553C6.63545 31.6664 6.61846 31.6772 6.60186 31.6884C6.53896 31.7312 6.47695 31.7751 6.41611 31.8205C6.41133 31.8241 6.40674 31.8279 6.40195 31.8315C6.34658 31.8732 6.29219 31.9161 6.23857 31.9601C6.22109 31.9743 6.2041 31.9891 6.18682 32.0035C6.1457 32.038 6.10518 32.0732 6.06514 32.1089C6.04668 32.1254 6.02832 32.1422 6.00996 32.159C5.97012 32.1956 5.93115 32.2331 5.89248 32.2709C5.87686 32.2862 5.86104 32.3013 5.84561 32.3169C5.79326 32.3696 5.7417 32.4233 5.6917 32.4783C5.69121 32.4788 5.69072 32.4793 5.69023 32.4799C5.63916 32.5361 5.58955 32.5938 5.54082 32.6523C5.52764 32.6681 5.51494 32.6844 5.50195 32.7004C5.46729 32.7433 5.43311 32.7865 5.39971 32.8305C5.38457 32.8504 5.36982 32.8704 5.35498 32.8904C5.32363 32.933 5.29307 32.9762 5.26299 33.0197C5.24951 33.0394 5.23584 33.0587 5.22266 33.0785C5.1877 33.1308 5.15381 33.1838 5.12061 33.2375C5.11396 33.2482 5.10693 33.2587 5.10039 33.2695C5.06104 33.3346 5.02314 33.4005 4.98652 33.4673C4.97764 33.4834 4.96953 33.4999 4.96084 33.5163C4.93379 33.567 4.90742 33.6181 4.88213 33.6698C4.8709 33.6928 4.86006 33.7158 4.84912 33.7389C4.82695 33.7858 4.80557 33.8333 4.78477 33.8811C4.77441 33.9049 4.76416 33.9285 4.7542 33.9525C4.73232 34.005 4.71162 34.0579 4.69141 34.1113C4.68447 34.1299 4.67705 34.1482 4.67022 34.1667C4.64522 34.2355 4.62129 34.3048 4.59922 34.3748H3.06113V28.6643H32.2892V34.3747H32.2895ZM32.2895 17.4563V25.6027H3.06143V12.0584H32.2895V17.4563H32.2895ZM35.351 20.5177H40.1646C40.9418 20.5177 41.574 21.1499 41.574 21.9271V25.6028H35.3509V20.5177H35.351ZM41.1964 37.9416C40.0735 37.9416 39.1602 37.0281 39.1602 35.9055C39.1602 34.7827 40.0736 33.8693 41.1964 33.8693C42.2489 33.8693 43.1176 34.6722 43.2221 35.6977C43.229 35.766 43.2326 35.8355 43.2326 35.9056C43.2325 37.0282 42.3191 37.9416 41.1964 37.9416ZM46.0593 34.3747C46.0371 34.3046 46.0134 34.2354 45.9883 34.1666C45.9815 34.1481 45.9741 34.1297 45.9671 34.1112C45.947 34.058 45.9262 34.0049 45.9043 33.9524C45.8943 33.9284 45.884 33.9048 45.8737 33.8811C45.853 33.8333 45.8314 33.7858 45.8094 33.7389C45.7984 33.7157 45.7876 33.6927 45.7764 33.6698C45.7511 33.6181 45.7246 33.5671 45.6977 33.5163C45.689 33.5001 45.6808 33.4835 45.6719 33.4673C45.6354 33.4005 45.5975 33.3346 45.558 33.2695C45.5515 33.2587 45.5444 33.2483 45.5378 33.2375C45.5047 33.1838 45.4707 33.1309 45.4357 33.0785C45.4225 33.0587 45.4089 33.0394 45.3954 33.0197C45.3654 32.9762 45.3348 32.9331 45.3033 32.8904C45.2885 32.8703 45.2737 32.8503 45.2586 32.8305C45.2252 32.7865 45.191 32.7433 45.1563 32.7004C45.1434 32.6844 45.1307 32.6681 45.1175 32.6523C45.0689 32.5938 45.0193 32.5361 44.9681 32.4799C44.9676 32.4794 44.9671 32.4789 44.9666 32.4783C44.9165 32.4233 44.865 32.3696 44.8127 32.3169C44.7973 32.3014 44.7814 32.2863 44.7658 32.2709C44.7272 32.233 44.6882 32.1956 44.6483 32.159C44.6301 32.1422 44.6117 32.1254 44.5932 32.1089C44.5531 32.0731 44.5126 32.038 44.4715 32.0035C44.4542 31.9891 44.4372 31.9743 44.4197 31.9601C44.3661 31.9162 44.3116 31.8733 44.2563 31.8315C44.2516 31.8279 44.247 31.8241 44.2422 31.8205C44.1813 31.775 44.1193 31.7312 44.0564 31.6884C44.0398 31.6772 44.0229 31.6663 44.0062 31.6553C43.9598 31.6244 43.9129 31.5942 43.8653 31.5649C43.8439 31.5517 43.8223 31.5387 43.8007 31.5259C43.7556 31.4989 43.71 31.4728 43.6641 31.4472C43.6427 31.4353 43.6214 31.4232 43.5998 31.4116C43.5464 31.3829 43.4925 31.3554 43.438 31.3285C43.4242 31.3217 43.4106 31.3145 43.3967 31.3078C43.328 31.2747 43.2584 31.2434 43.188 31.2133C43.172 31.2065 43.1557 31.2002 43.1396 31.1936C43.0851 31.171 43.0304 31.1493 42.9749 31.1285C42.9508 31.1195 42.9267 31.1109 42.9023 31.1024C42.8531 31.0848 42.8037 31.0681 42.7539 31.0521C42.7287 31.044 42.7035 31.0358 42.6781 31.028C42.6243 31.0117 42.5701 30.9964 42.5156 30.9818C42.4951 30.9764 42.4748 30.9704 42.4542 30.9651C42.3793 30.9461 42.3039 30.9284 42.2277 30.9127C42.2152 30.9102 42.2026 30.9082 42.1901 30.9057C42.1263 30.893 42.0619 30.8814 41.9973 30.8712C41.9717 30.8671 41.9459 30.8638 41.9202 30.8601C41.8673 30.8525 41.8141 30.8457 41.7607 30.8398C41.7328 30.8367 41.7049 30.8337 41.6769 30.8311C41.6222 30.826 41.5672 30.8219 41.5119 30.8186C41.4868 30.817 41.4619 30.815 41.4367 30.8139C41.3569 30.8102 41.277 30.8077 41.1962 30.8077C41.1154 30.8077 41.0354 30.8101 40.9557 30.8139C40.9306 30.8151 40.9056 30.8169 40.8805 30.8185C40.8253 30.8218 40.7702 30.8259 40.7154 30.8311C40.6874 30.8337 40.6595 30.8366 40.6316 30.8398C40.5781 30.8457 40.5249 30.8526 40.472 30.8602C40.4464 30.8639 40.4206 30.8673 40.3951 30.8713C40.3302 30.8816 40.2658 30.8933 40.2018 30.9059C40.1895 30.9083 40.177 30.9103 40.1647 30.9128C40.0885 30.9285 40.013 30.9462 39.938 30.9652C39.9176 30.9704 39.8974 30.9764 39.8771 30.9818C39.8224 30.9966 39.768 31.0117 39.7141 31.0282C39.6889 31.0358 39.6638 31.044 39.6387 31.052C39.5887 31.0681 39.5391 31.085 39.4896 31.1024C39.4655 31.111 39.4415 31.1194 39.4176 31.1284C39.3619 31.1491 39.3069 31.1711 39.2522 31.1938C39.2364 31.2004 39.2203 31.2065 39.2046 31.2132C39.1342 31.2432 39.0645 31.2747 38.9957 31.3078C38.982 31.3144 38.9687 31.3215 38.9551 31.3282C38.9004 31.3552 38.8461 31.3828 38.7924 31.4116C38.771 31.4232 38.7498 31.4351 38.7286 31.4469C38.6825 31.4725 38.6366 31.4988 38.5913 31.5259C38.5698 31.5388 38.5483 31.5516 38.5271 31.5647C38.4793 31.5941 38.4322 31.6244 38.3855 31.6555C38.369 31.6665 38.3522 31.6771 38.3359 31.6881C38.2729 31.731 38.2108 31.7748 38.15 31.8204C38.1454 31.8239 38.1409 31.8275 38.1363 31.831C38.0807 31.8728 38.0261 31.9158 37.9724 31.96C37.955 31.9741 37.9381 31.9888 37.9209 32.0031C37.8797 32.0377 37.839 32.073 37.7989 32.1089C37.7805 32.1254 37.7622 32.142 37.744 32.1588C37.7042 32.1955 37.6651 32.233 37.6265 32.2709C37.6108 32.2862 37.595 32.3013 37.5796 32.3168C37.5274 32.3693 37.4761 32.4229 37.4262 32.4776C37.4255 32.4784 37.4247 32.4792 37.424 32.4799C37.3729 32.5361 37.3233 32.5937 37.2747 32.6522C37.2615 32.668 37.2489 32.6842 37.2359 32.7002C37.2012 32.7431 37.167 32.7864 37.1336 32.8304C37.1185 32.8503 37.1037 32.8703 37.0889 32.8903C37.0575 32.9329 37.027 32.9761 36.9969 33.0196C36.9834 33.0393 36.9697 33.0586 36.9565 33.0784C36.9217 33.1306 36.8879 33.1834 36.8548 33.2369C36.848 33.2479 36.8409 33.2586 36.8342 33.2695C36.7948 33.3345 36.7569 33.4004 36.7205 33.4671C36.7115 33.4834 36.7032 33.5002 36.6945 33.5167C36.6676 33.5672 36.6414 33.6181 36.6161 33.6695C36.6048 33.6926 36.5939 33.7157 36.583 33.739C36.5608 33.7859 36.5395 33.8331 36.5187 33.8809C36.5084 33.9046 36.498 33.9284 36.488 33.9523C36.4661 34.0048 36.4454 34.0577 36.4252 34.111C36.4183 34.1296 36.4108 34.1479 36.404 34.1665C36.379 34.2352 36.3551 34.3045 36.333 34.3746H35.3506V28.6641H41.5737V28.6672H46.4057C46.6992 28.6672 46.9382 28.9061 46.9382 29.1998V34.3746H46.0593V34.3747Z" fill="#2e1d15"/>
</svg>
