<?xml version="1.0" standalone="no"?>
<!DOCTYPE svg PUBLIC "-//W3C//DTD SVG 20010904//EN"
 "http://www.w3.org/TR/2001/REC-SVG-20010904/DTD/svg10.dtd">
<svg version="1.0" xmlns="http://www.w3.org/2000/svg"
 width="700.000000pt" height="700.000000pt" viewBox="0 0 700.000000 700.000000"
 preserveAspectRatio="xMidYMid meet">
<metadata>
Created by potrace 1.14, written by Peter Selinger 2001-2017
</metadata>
<g transform="translate(0.000000,700.000000) scale(0.100000,-0.100000)"
fill="#000000" stroke="none">
<path d="M0 3500 l0 -3500 3500 0 3500 0 0 3500 0 3500 -3500 0 -3500 0 0
-3500z m2373 2819 c43 -12 101 -59 122 -99 7 -14 19 -73 25 -129 42 -380 232
-615 546 -675 58 -11 189 -16 489 -21 436 -6 658 -16 900 -40 815 -82 1368
-325 1628 -716 95 -143 144 -272 193 -502 35 -166 44 -443 20 -597 -50 -316
-221 -612 -457 -792 l-69 -53 -320 -959 c-175 -528 -327 -971 -338 -985 -27
-37 -64 -61 -108 -71 -52 -12 -2826 -12 -2878 0 -47 10 -84 36 -112 77 -11 16
-172 477 -359 1024 l-338 994 -84 91 c-272 295 -437 599 -515 950 -19 86 -22
130 -22 339 -1 215 2 251 22 345 114 523 460 1017 1026 1468 179 143 447 320
524 348 46 16 57 17 105 3z"/>
<path d="M1775 5490 c-357 -326 -581 -665 -671 -1016 -26 -98 -29 -126 -29
-279 0 -132 4 -188 19 -250 74 -319 258 -618 563 -917 l110 -108 1639 0 1640
0 -8 98 c-30 369 -155 620 -401 804 -312 232 -773 362 -1692 478 -325 41 -410
58 -540 109 -266 103 -443 296 -517 566 -31 116 -32 386 0 530 12 54 20 100
19 102 -2 1 -61 -51 -132 -117z"/>
<path d="M2265 5453 c-87 -433 56 -664 455 -737 47 -9 180 -27 295 -41 1392
-166 2014 -466 2282 -1098 62 -147 122 -420 123 -562 1 -79 9 -84 75 -44 197
119 336 297 400 514 22 73 28 118 32 236 11 307 -67 597 -207 766 -137 165
-390 303 -711 387 -368 97 -681 125 -1594 145 -369 8 -395 10 -486 34 -246 64
-465 218 -589 415 -25 39 -48 71 -51 71 -4 1 -14 -38 -24 -86z"/>
<path d="M1820 2522 c0 -4 109 -336 243 -737 l244 -730 141 -3 c78 -1 142 1
142 5 0 5 -54 338 -121 741 l-122 732 -264 0 c-144 0 -263 -3 -263 -8z"/>
<path d="M2851 1823 c65 -390 121 -723 124 -740 l6 -33 194 0 195 0 0 740 0
740 -318 0 -319 0 118 -707z"/>
<path d="M3760 1790 l0 -740 195 0 194 0 6 32 c3 18 59 351 124 741 l118 707
-319 0 -318 0 0 -740z"/>
<path d="M4661 1798 c-67 -403 -121 -736 -121 -741 0 -4 64 -6 142 -5 l141 3
244 730 c134 401 243 733 243 737 0 5 -119 8 -263 8 l-264 0 -122 -732z"/>
</g>
</svg>
