<svg width="120" height="120" fill="#2e1d15" xmlns="http://www.w3.org/2000/svg"><path d="M111.562 83.063H8.438a1.406 1.406 0 010-2.813h103.124a1.408 1.408 0 011.407 1.406 1.405 1.405 0 01-1.407 1.406zM105 89.625H16.875a1.407 1.407 0 010-2.813H105a1.404 1.404 0 011.406 1.407A1.405 1.405 0 01105 89.625z"/><path d="M107.531 83.063h-92.25l.197-1.585a46.566 46.566 0 0145.46-40.603h.487a46.387 46.387 0 0145.938 40.603l.168 1.585zM18.469 80.25h85.819a43.578 43.578 0 00-42.91-36.563h-.44A43.744 43.744 0 0018.496 80.25h-.028zm49.969-44.062a1.407 1.407 0 01-1.407-1.407 6.094 6.094 0 00-12.187 0 1.406 1.406 0 01-2.813 0 8.907 8.907 0 0117.813 0 1.407 1.407 0 01-1.406 1.407z"/><path d="M90.938 73.688a1.416 1.416 0 01-1.397-1.21 25.087 25.087 0 00-21.3-21.3 1.419 1.419 0 11.393-2.812 27.948 27.948 0 0123.7 23.718 1.426 1.426 0 01-1.2 1.594l-.197.01zm7.5 22.5h-75a1.407 1.407 0 010-2.813h75a1.407 1.407 0 010 2.813z"/></svg>