<svg width="120" height="120" fill="#2e1d15" xmlns="http://www.w3.org/2000/svg"><path d="M68.906 80.25a1.406 1.406 0 01-1.406-1.406V21.188a12.656 12.656 0 1125.313 0v5.625a1.407 1.407 0 01-2.813 0v-5.625a9.844 9.844 0 00-19.688 0v57.656a1.406 1.406 0 01-1.406 1.406z"/><path d="M46.406 101.344A23.937 23.937 0 0122.5 77.438a1.407 1.407 0 011.406-1.407h45a1.406 1.406 0 011.406 1.406 23.934 23.934 0 01-23.906 23.907zm-21.047-22.5a21.094 21.094 0 0042.094 0H25.36zM51.834 67.96a4.564 4.564 0 01-.619 0 1.42 1.42 0 01.394-2.813 2.072 2.072 0 001.547-.46 3.684 3.684 0 001.322-2.446c.178-1.932-.844-3.891-1.875-5.56-.178-.29-.356-.59-.544-.881a18.018 18.018 0 01-2.681-5.625 10.012 10.012 0 014.388-10.313 1.407 1.407 0 111.49 2.325 7.115 7.115 0 00-3.122 7.35 15.777 15.777 0 002.316 4.772c.187.3.384.6.562.938 1.238 1.94 2.522 4.453 2.27 7.2a6.562 6.562 0 01-2.382 4.406 4.969 4.969 0 01-3.066 1.106zm-13.715-1.07a1.406 1.406 0 01-.544-2.7c1.987-.843 2.897-3.337 2.906-5.296 0-2.363-.937-4.753-1.819-7.069l-.065-.16c-.853-2.221-2.035-5.259-1.875-8.362.16-3.103 1.875-6.469 5.231-7.5a1.408 1.408 0 012.06 1.424 1.407 1.407 0 01-1.225 1.21c-2.082.647-3.141 3.029-3.244 4.979-.122 2.315.684 4.63 1.678 7.2l.066.15c.984 2.559 2.015 5.212 2.006 8.1-.01 2.887-1.444 6.562-4.622 7.875a1.42 1.42 0 01-.553.15z"/></svg>