<svg width="120" height="120" fill="#2e1d15" xmlns="http://www.w3.org/2000/svg"><path d="M69.01 101.344H49.79a27.735 27.735 0 01-27.45-25.125 26.923 26.923 0 01-.112-2.428V44.897h74.335V73.79c0 .787 0 1.603-.113 2.428a27.713 27.713 0 01-27.44 25.125zM25.04 47.709v26.082c0 .703 0 1.434.104 2.184A24.89 24.89 0 0049.79 98.531h19.218a24.89 24.89 0 0024.638-22.594c.066-.75.103-1.48.103-2.184V47.71H25.04z"/><path d="M25.313 77.503h-1.679a13.331 13.331 0 010-26.653h1.407v22.94c0 .704 0 1.435.103 2.185l.169 1.528zm-3.085-23.747a10.518 10.518 0 000 20.84v-20.84zm72.928 23.747h-1.64l.13-1.566c.067-.75.104-1.48.104-2.184V50.85h1.406a13.332 13.332 0 010 26.653zm1.406-23.747v20.841a10.52 10.52 0 000-20.84zM23.634 41.747a1.406 1.406 0 01-.843-2.531 60.994 60.994 0 0173.209 0 1.406 1.406 0 11-1.688 2.25 58.181 58.181 0 00-69.834 0 1.41 1.41 0 01-.844.28z"/><path d="M65.353 23.869a1.406 1.406 0 01-1.406-1.407 4.557 4.557 0 10-9.103 0 1.407 1.407 0 01-2.813 0 7.369 7.369 0 1114.728 0 1.406 1.406 0 01-1.406 1.407zM83.24 83.438a1.407 1.407 0 01-1.406-1.407V58.22a1.406 1.406 0 112.813 0v23.84a1.407 1.407 0 01-1.406 1.379zm-5.962 0a1.406 1.406 0 01-1.406-1.407v-17.85a1.406 1.406 0 012.812 0V82.06a1.406 1.406 0 01-1.406 1.379z"/></svg>