<svg fill="#000" version="1.1" id="Layer_1" xmlns="http://www.w3.org/2000/svg" width="800" height="800" viewBox="0 0 61.525 53.438" xml:space="preserve"><path d="M8.908 16.403h43.708a2.238 2.238 0 002.241-2.231V9.709a2.234 2.234 0 00-2.241-2.229H8.908a2.233 2.233 0 00-2.242 2.229v4.463a2.237 2.237 0 002.242 2.231zM49.255 6.025c.744 0 1.346-.599 1.346-1.34V1.34A1.345 1.345 0 0049.255 0c-.74 0-1.347.603-1.347 1.34v3.346c0 .741.606 1.339 1.347 1.339zm-6.165 0c.744 0 1.346-.599 1.346-1.34V1.34c0-.737-.602-1.34-1.346-1.34-.745 0-1.346.603-1.346 1.34v3.346c0 .741.6 1.339 1.346 1.339zM8.908 28.11h43.708a2.234 2.234 0 002.241-2.229v-4.463a2.238 2.238 0 00-2.241-2.23H8.908a2.238 2.238 0 00-2.242 2.23v4.463a2.232 2.232 0 002.242 2.229zM30.761 6.025c.743 0 1.345-.599 1.345-1.34V1.34c0-.737-.601-1.34-1.345-1.34s-1.345.603-1.345 1.34v3.346a1.34 1.34 0 001.345 1.339zm-18.491 0c.739 0 1.345-.599 1.345-1.34V1.34a1.346 1.346 0 00-2.691 0v3.346a1.341 1.341 0 001.346 1.339zm47.91 24.656H1.344A1.34 1.34 0 000 32.021c0 .734.602 1.338 1.345 1.338h4.793a1.493 1.493 0 00-.032.329v1.678c0 1.232 1.192 2.232 2.668 2.232h12.688c2.777 2.376 7.225 7.116 7.332 13.16h-4.196c-.743 0-1.346.599-1.346 1.341 0 .734.602 1.337 1.346 1.337h13.449c.743 0 1.346-.603 1.346-1.337 0-.742-.602-1.341-1.346-1.341H32.73c.106-6.044 4.555-10.784 7.328-13.16H52.75c1.477 0 2.667-1 2.667-2.232v-1.678a1.7 1.7 0 00-.03-.329h4.794c.742 0 1.345-.604 1.345-1.338a1.342 1.342 0 00-1.346-1.34zM18.433 6.025a1.34 1.34 0 001.345-1.34V1.34c0-.737-.601-1.34-1.345-1.34s-1.346.603-1.346 1.34v3.346a1.341 1.341 0 001.346 1.339zm18.493 0c.743 0 1.346-.599 1.346-1.34V1.34a1.345 1.345 0 00-2.691 0v3.346a1.34 1.34 0 001.345 1.339zm-12.329 0c.743 0 1.345-.599 1.345-1.34V1.34a1.345 1.345 0 00-2.691 0v3.346a1.342 1.342 0 001.346 1.339z"/></svg>