<svg width="260" height="260" viewBox="0 0 260 260" fill="none" xmlns="http://www.w3.org/2000/svg">
<rect width="260" height="260" fill="#2E1D15"/>
<path d="M184.247 235C187.296 235 190.002 233.048 190.966 230.157L214.26 159.963C217.214 157.901 220.431 155.189 223.408 151.698C231.308 142.434 239.1 125.811 231.361 99.2218C219.803 59.4979 159.478 59.5622 123.423 59.558L120.892 59.5594C109.467 59.5594 101.711 55.3106 97.1806 46.5698C93.5279 39.5224 93.419 32.1244 93.4183 32.0826C93.4183 29.5732 92.0904 27.2505 89.9275 25.9778C87.7638 24.7058 85.089 24.6718 82.8964 25.8915C80.744 27.0865 30.1489 55.6634 25.8054 98.6272C23.769 118.763 30.2889 138.305 48.8721 156.835L73.8572 230.157C74.8209 233.049 77.5276 235 80.5765 235H184.247ZM39.8937 100.091C41.9273 79.7965 57.7112 62.6309 70.9893 51.5766C68.6213 60.9538 67.6816 72.3588 72.646 81.9212C77.8486 91.9461 88.0665 97.865 103.012 99.5139C136.805 103.241 156.493 108.072 168.843 115.67C181.156 123.243 186.757 134.075 187.419 151.718H65.9549C46.9227 134.784 38.1565 117.425 39.8937 100.091ZM139.492 220.836V165.882H163.319L154.161 220.836H139.492ZM110.66 220.836L101.502 165.882H125.328V220.836H110.66ZM67.3634 165.882H87.143L96.3003 220.836H85.6815L67.3634 165.882ZM179.143 220.836H168.522L177.679 165.882H197.459L179.143 220.836ZM213.002 142.065C209.02 146.905 204.311 149.721 201.567 151.077C200.691 128.785 192.625 113.669 176.264 103.604C161.825 94.7227 141.052 89.4586 104.565 85.4354C94.626 84.3387 88.1195 80.9688 85.2276 75.4169C82.0974 69.411 83.0024 61.1022 85.0034 53.8328C90.0965 63.2037 100.38 73.7242 120.892 73.7242L123.432 73.7227C155.531 73.7107 209.175 73.6697 217.763 103.179C222.483 119.401 220.882 132.484 213.002 142.065Z" fill="#F6F7F1"/>
</svg>
