<svg width="35" height="35" viewBox="0 0 35 35" fill="none" xmlns="http://www.w3.org/2000/svg">
    <path d="M26.5412 34.9998C27.0493 34.9998 27.5003 34.6745 27.661 34.1926L31.5434 22.4936C32.0356 22.1499 32.5718 21.698 33.068 21.1161C34.3846 19.5721 35.6833 16.8016 34.3936 12.3701C32.4671 5.74942 22.413 5.76014 16.4038 5.75944L15.9819 5.75967C14.0778 5.75967 12.7851 5.05154 12.0301 3.59474C11.4213 2.42018 11.4032 1.18716 11.403 1.18021C11.403 0.761979 11.1817 0.374858 10.8212 0.162737C10.4606 -0.0492665 10.0148 -0.0549231 9.64938 0.14836C9.29066 0.347518 0.858138 5.11035 0.134215 12.271C-0.205179 15.627 0.881472 18.884 3.97868 21.9723L8.14285 34.1926C8.30347 34.6746 8.75459 34.9998 9.26273 34.9998H26.5412V34.9998ZM2.48228 12.5149C2.8212 9.13252 5.45186 6.27159 7.66487 4.4292C7.27021 5.99206 7.11359 7.8929 7.94098 9.48664C8.80809 11.1574 10.5111 12.1439 13.002 12.4187C18.6341 13.0399 21.9154 13.8451 23.9738 15.1114C26.026 16.3736 26.9594 18.179 27.0698 21.1194H6.82582C3.65378 18.2971 2.19273 15.4039 2.48228 12.5149ZM19.0821 32.6391V23.48H23.0532L21.5269 32.6391H19.0821ZM14.2767 32.6391L12.7504 23.48H16.7214V32.6391H14.2767ZM7.06056 23.48H10.3572L11.8834 32.6391H10.1136L7.06056 23.48ZM25.6905 32.6391H23.9203L25.4465 23.48H28.7431L25.6905 32.6391ZM31.3336 19.5107C30.67 20.3172 29.8852 20.7866 29.4278 21.0126C29.2818 17.2973 27.9374 14.7779 25.2106 13.1005C22.8041 11.6202 19.342 10.7429 13.2609 10.0723C11.6043 9.88955 10.5199 9.3279 10.0379 8.40258C9.51622 7.40161 9.66706 6.01681 10.0006 4.80524C10.8494 6.36705 12.5633 8.12046 15.9819 8.12046L16.4053 8.12023C21.7551 8.11822 30.6958 8.11139 32.1272 13.0297C32.9139 15.7333 32.647 17.9137 31.3336 19.5107Z" fill="#F6F7F1"/>
</svg>
