<?xml version="1.0" encoding="iso-8859-1"?>
<!-- Generator: Adobe Illustrator 18.0.0, SVG Export Plug-In . SVG Version: 6.00 Build 0)  -->
<!DOCTYPE svg PUBLIC "-//W3C//DTD SVG 1.1//EN" "http://www.w3.org/Graphics/SVG/1.1/DTD/svg11.dtd">
<svg version="1.1" id="cupcake" xmlns="http://www.w3.org/2000/svg" xmlns:xlink="http://www.w3.org/1999/xlink" x="0px" y="0px"
     viewBox="0 0 297 297" style="enable-background:new 0 0 297 297;" xml:space="preserve">
    <path style="fill: #f6f7f1;" d="M225.221,297c4.312,0,8.139-2.76,9.502-6.849l32.945-99.275c4.177-2.916,8.727-6.751,12.938-11.689
    c11.172-13.102,22.192-36.611,11.248-74.216C275.507,48.79,190.19,48.881,139.198,48.875l-3.58,0.002
    c-16.158,0-27.127-6.009-33.534-18.371c-5.166-9.967-5.32-20.43-5.321-20.489c0-3.549-1.878-6.834-4.937-8.634
    c-3.06-1.799-6.843-1.847-9.944-0.122C78.838,2.951,7.282,43.367,1.139,104.13c-2.88,28.478,6.341,56.116,32.623,82.323
    l35.336,103.698c1.363,4.09,5.191,6.849,9.503,6.849H225.221z M21.064,106.2c2.876-28.702,25.199-52.979,43.978-68.613
    c-3.349,13.262-4.678,29.392,2.343,42.916c7.358,14.178,21.809,22.549,42.946,24.881c47.793,5.271,75.637,12.104,93.104,22.849
    c17.414,10.711,25.335,26.031,26.272,50.982H57.922C31.005,155.266,18.607,130.715,21.064,106.2z M161.925,276.968v-77.721h33.698
    l-12.952,77.721H161.925z M121.148,276.968l-12.952-77.721h33.697v77.721H121.148z M59.914,199.247h27.974l12.951,77.721H85.821
    L59.914,199.247z M218.002,276.968h-15.021l12.951-77.721h27.974L218.002,276.968z M265.888,165.564
    c-5.631,6.844-12.291,10.827-16.172,12.745c-1.239-31.527-12.647-52.906-35.786-67.14c-20.421-12.561-49.799-20.006-101.402-25.696
    c-14.057-1.551-23.259-6.317-27.349-14.169c-4.427-8.494-3.147-20.245-0.317-30.526c7.203,13.253,21.747,28.132,50.756,28.132
    l3.593-0.002c45.397-0.017,121.265-0.075,133.411,41.66C279.298,133.51,277.033,152.013,265.888,165.564z"/>
</svg>
