<svg width="37" height="37" fill="none" xmlns="http://www.w3.org/2000/svg"><path d="M18.5.74C8.691.74.74 8.691.74 18.5c0 9.809 7.951 17.76 17.76 17.76 9.809 0 17.76-7.951 17.76-17.76C36.26 8.691 28.309.74 18.5.74zm6.83 20.037s1.57 1.55 1.958 2.27c.01.015.016.03.02.037.157.265.194.47.116.624-.13.255-.573.38-.725.392h-2.775c-.192 0-.596-.05-1.084-.387-.375-.262-.745-.694-1.106-1.113-.539-.626-1.005-1.166-1.475-1.166-.06 0-.119.01-.175.028-.356.114-.81.621-.81 1.972 0 .422-.334.664-.569.664h-1.27c-.433 0-2.689-.152-4.687-2.259-2.445-2.58-4.647-7.757-4.665-7.805-.14-.335.148-.514.46-.514h2.803c.374 0 .496.227.58.429.1.235.467 1.17 1.068 2.22.975 1.713 1.573 2.409 2.052 2.409a.556.556 0 00.257-.067c.625-.348.509-2.577.481-3.04 0-.086-.002-.997-.322-1.433-.23-.317-.62-.437-.856-.481a1.01 1.01 0 01.368-.313c.43-.214 1.202-.246 1.97-.246h.428c.832.011 1.047.065 1.348.14.61.147.624.54.57 1.89-.017.383-.033.815-.033 1.326 0 .111-.006.23-.006.355-.018.686-.04 1.465.444 1.785a.4.4 0 00.211.061c.168 0 .675 0 2.048-2.355a17.95 17.95 0 001.1-2.356c.028-.049.11-.197.206-.254a.493.493 0 01.23-.054h3.294c.36 0 .605.054.652.193.08.22-.015.892-1.52 2.928l-.67.887c-1.364 1.787-1.364 1.877.084 3.233z" fill="#f6f7f1"/></svg>