<svg width="120" height="120" viewBox="0 0 120 120" fill="#2e1d15" xmlns="http://www.w3.org/2000/svg">
    <path d="M111.562 83.0625H8.4375C8.06454 83.0625 7.70685 82.9143 7.44313 82.6506C7.17941 82.3869 7.03125 82.0292 7.03125 81.6562C7.03125 81.2833 7.17941 80.9256 7.44313 80.6619C7.70685 80.3982 8.06454 80.25 8.4375 80.25H111.562C111.935 80.25 112.293 80.3982 112.557 80.6619C112.821 80.9256 112.969 81.2833 112.969 81.6562C112.969 82.0292 112.821 82.3869 112.557 82.6506C112.293 82.9143 111.935 83.0625 111.562 83.0625Z"/>
    <path d="M105 89.625H16.875C16.502 89.625 16.1444 89.4768 15.8806 89.2131C15.6169 88.9494 15.4688 88.5917 15.4688 88.2188C15.4688 87.8458 15.6169 87.4881 15.8806 87.2244C16.1444 86.9607 16.502 86.8125 16.875 86.8125H105C105.373 86.8125 105.731 86.9607 105.994 87.2244C106.258 87.4881 106.406 87.8458 106.406 88.2188C106.406 88.5917 106.258 88.9494 105.994 89.2131C105.731 89.4768 105.373 89.625 105 89.625V89.625Z"/>
    <path d="M107.531 83.0625H15.2812L15.4781 81.4781C16.9101 70.3764 22.2931 60.162 30.6416 52.7054C38.9901 45.2488 49.7452 41.049 60.9375 40.875H61.425C72.7108 40.8964 83.6017 45.0314 92.0578 52.5056C100.514 59.9798 105.955 70.2804 107.363 81.4781L107.531 83.0625ZM18.4688 80.25H104.288C102.626 70.0601 97.4004 60.7912 89.5419 54.0951C81.6834 47.3989 71.7026 43.7106 61.3781 43.6875H60.9375C50.7034 43.8538 40.8516 47.6036 33.0969 54.2842C25.3423 60.9648 20.1758 70.1532 18.4969 80.25H18.4688Z"/>
    <path d="M68.4375 36.1875C68.0645 36.1875 67.7069 36.0393 67.4431 35.7756C67.1794 35.5119 67.0312 35.1542 67.0312 34.7812C67.0312 33.1651 66.3892 31.6151 65.2464 30.4723C64.1036 29.3295 62.5537 28.6875 60.9375 28.6875C59.3213 28.6875 57.7714 29.3295 56.6286 30.4723C55.4858 31.6151 54.8438 33.1651 54.8438 34.7812C54.8438 35.1542 54.6956 35.5119 54.4319 35.7756C54.1681 36.0393 53.8105 36.1875 53.4375 36.1875C53.0645 36.1875 52.7069 36.0393 52.4431 35.7756C52.1794 35.5119 52.0312 35.1542 52.0312 34.7812C52.0313 32.4192 52.9696 30.1538 54.6398 28.4836C56.3101 26.8133 58.5754 25.875 60.9375 25.875C63.2996 25.875 65.5649 26.8133 67.2352 28.4836C68.9054 30.1538 69.8438 32.4192 69.8438 34.7812C69.8437 35.1542 69.6956 35.5119 69.4319 35.7756C69.1681 36.0393 68.8105 36.1875 68.4375 36.1875Z"/>
    <path d="M90.9375 73.6875C90.5984 73.6866 90.2709 73.5641 90.0145 73.3421C89.7582 73.1202 89.59 72.8136 89.5406 72.4781C88.7748 67.1004 86.2842 62.1165 82.4432 58.2755C78.6022 54.4345 73.6183 51.9439 68.2406 51.1781C68.0559 51.1523 67.8782 51.0903 67.7174 50.9957C67.5567 50.9012 67.4162 50.7759 67.3039 50.627C67.1916 50.4782 67.1097 50.3086 67.0629 50.1281C67.0161 49.9476 67.0054 49.7597 67.0312 49.575C67.0571 49.3903 67.1191 49.2126 67.2136 49.0518C67.3082 48.8911 67.4335 48.7506 67.5823 48.6383C67.7312 48.526 67.9007 48.4441 68.0812 48.3973C68.2617 48.3505 68.4497 48.3398 68.6344 48.3656C74.6187 49.2238 80.1634 51.9994 84.4366 56.2759C88.7097 60.5525 91.4809 66.0994 92.3344 72.0844C92.3827 72.4542 92.2841 72.8283 92.0598 73.1263C91.8354 73.4243 91.5032 73.6224 91.1344 73.6781L90.9375 73.6875Z"/>
    <path d="M98.4375 96.1875H23.4375C23.0645 96.1875 22.7069 96.0393 22.4431 95.7756C22.1794 95.5119 22.0312 95.1542 22.0312 94.7812C22.0312 94.4083 22.1794 94.0506 22.4431 93.7869C22.7069 93.5232 23.0645 93.375 23.4375 93.375H98.4375C98.8105 93.375 99.1681 93.5232 99.4319 93.7869C99.6956 94.0506 99.8438 94.4083 99.8438 94.7812C99.8438 95.1542 99.6956 95.5119 99.4319 95.7756C99.1681 96.0393 98.8105 96.1875 98.4375 96.1875Z"/>
</svg>
