<svg width="120" height="120" viewBox="0 0 120 120" fill="#2e1d15" xmlns="http://www.w3.org/2000/svg">
    <path d="M68.9062 80.25C68.5333 80.25 68.1756 80.1018 67.9119 79.8381C67.6482 79.5744 67.5 79.2167 67.5 78.8438V21.1875C67.5 17.8309 68.8334 14.6117 71.2069 12.2382C73.5804 9.86467 76.7996 8.53125 80.1562 8.53125C83.5129 8.53125 86.7321 9.86467 89.1056 12.2382C91.4791 14.6117 92.8125 17.8309 92.8125 21.1875V26.8125C92.8125 27.1855 92.6643 27.5431 92.4006 27.8069C92.1369 28.0706 91.7792 28.2188 91.4062 28.2188C91.0333 28.2188 90.6756 28.0706 90.4119 27.8069C90.1482 27.5431 90 27.1855 90 26.8125V21.1875C90 18.5768 88.9629 16.073 87.1168 14.2269C85.2708 12.3809 82.767 11.3438 80.1562 11.3438C77.5455 11.3438 75.0417 12.3809 73.1957 14.2269C71.3496 16.073 70.3125 18.5768 70.3125 21.1875V78.8438C70.3125 79.2167 70.1643 79.5744 69.9006 79.8381C69.6369 80.1018 69.2792 80.25 68.9062 80.25Z"/>
    <path d="M46.4062 101.344C40.0682 101.336 33.9919 98.8152 29.5102 94.3335C25.0285 89.8519 22.5074 83.7755 22.5 77.4375C22.5 77.0645 22.6482 76.7069 22.9119 76.4431C23.1756 76.1794 23.5333 76.0312 23.9062 76.0312H68.9062C69.2792 76.0312 69.6369 76.1794 69.9006 76.4431C70.1643 76.7069 70.3125 77.0645 70.3125 77.4375C70.3051 83.7755 67.784 89.8519 63.3023 94.3335C58.8206 98.8152 52.7443 101.336 46.4062 101.344V101.344ZM25.3594 78.8438C25.7159 84.183 28.0884 89.1871 31.9962 92.8427C35.904 96.4983 41.0551 98.532 46.4062 98.532C51.7574 98.532 56.9085 96.4983 60.8163 92.8427C64.7241 89.1871 67.0966 84.183 67.4531 78.8438H25.3594Z"/>
    <path d="M51.8343 67.9594C51.6283 67.9734 51.4215 67.9734 51.2155 67.9594C50.8426 67.9072 50.5056 67.7089 50.2788 67.4083C50.052 67.1076 49.9539 66.7292 50.0061 66.3562C50.0584 65.9833 50.2566 65.6463 50.5572 65.4195C50.8579 65.1927 51.2363 65.0947 51.6093 65.1469C51.8847 65.1777 52.1636 65.1529 52.4293 65.074C52.695 64.9951 52.9421 64.8636 53.1561 64.6875C53.8995 64.0759 54.374 63.1976 54.478 62.2406C54.6561 60.3094 53.6343 58.35 52.603 56.6812C52.4249 56.3906 52.2468 56.0906 52.0593 55.8C50.8456 54.0949 49.9383 52.1915 49.378 50.175C48.9975 48.2145 49.2119 46.185 49.9938 44.3474C50.7756 42.5097 52.0891 40.9479 53.7655 39.8625C53.9157 39.7197 54.0955 39.6119 54.2922 39.5467C54.4889 39.4815 54.6975 39.4606 54.9032 39.4854C55.1089 39.5103 55.3066 39.5803 55.4821 39.6904C55.6576 39.8006 55.8066 39.9481 55.9184 40.1226C56.0302 40.297 56.1022 40.494 56.129 40.6994C56.1558 40.9049 56.1369 41.1137 56.0736 41.311C56.0104 41.5083 55.9043 41.6892 55.7629 41.8407C55.6216 41.9922 55.4486 42.1107 55.2561 42.1875C54.0602 42.9598 53.1235 44.073 52.567 45.3833C52.0104 46.6936 51.8597 48.1407 52.1343 49.5375C52.6313 51.2474 53.4143 52.8608 54.4499 54.3094C54.6374 54.6094 54.8343 54.9094 55.0124 55.2469C56.2499 57.1875 57.5343 59.7 57.2811 62.4469C57.1011 64.1727 56.245 65.7569 54.8999 66.8531C54.0315 67.556 52.9515 67.9458 51.8343 67.9594V67.9594Z"/>
    <path d="M38.1187 66.8906C37.7952 66.8889 37.4822 66.7758 37.2324 66.5702C36.9826 66.3646 36.8114 66.0792 36.7475 65.762C36.6836 65.4449 36.7311 65.1154 36.8818 64.8292C37.0325 64.5429 37.2774 64.3174 37.575 64.1906C39.5625 63.3469 40.4719 60.8531 40.4812 58.8937C40.4812 56.5312 39.5437 54.1406 38.6625 51.825L38.5969 51.6656C37.7437 49.4437 36.5625 46.4062 36.7219 43.3031C36.8812 40.2 38.5969 36.8344 41.9531 35.8031C42.1352 35.7051 42.3368 35.6484 42.5433 35.6371C42.7498 35.6259 42.9563 35.6603 43.148 35.738C43.3397 35.8157 43.5119 35.9347 43.6524 36.0866C43.7928 36.2385 43.898 36.4195 43.9604 36.6167C44.0229 36.8139 44.0411 37.0224 44.0137 37.2274C43.9863 37.4325 43.914 37.6289 43.802 37.8028C43.69 37.9767 43.541 38.1238 43.3656 38.2335C43.1903 38.3432 42.9929 38.4128 42.7875 38.4375C40.7062 39.0844 39.6469 41.4656 39.5437 43.4156C39.4219 45.7313 40.2281 48.0469 41.2219 50.6156L41.2875 50.7656C42.2719 53.325 43.3031 55.9781 43.2937 58.8656C43.2844 61.7531 41.85 65.4281 38.6719 66.7406C38.4995 66.8276 38.3114 66.8786 38.1187 66.8906Z"/>
</svg>
