<svg width="120" height="120" viewBox="0 0 120 120" fill="#2e1d15" xmlns="http://www.w3.org/2000/svg">
    <path d="M69.0094 101.344H49.7906C42.9144 101.304 36.2981 98.7118 31.2257 94.0691C26.1533 89.4264 22.9868 83.0647 22.3407 76.2188C22.2657 75.3938 22.2281 74.5781 22.2281 73.7906V44.8969H96.5625V73.7906C96.5625 74.5781 96.5625 75.3938 96.45 76.2188C95.8081 83.0647 92.6441 89.4275 87.5729 94.0708C82.5016 98.7141 75.8852 101.306 69.0094 101.344V101.344ZM25.0406 47.7094V73.7906C25.0406 74.4938 25.0406 75.225 25.1438 75.975C25.7227 82.122 28.5657 87.8345 33.1204 92.0028C37.6751 96.1712 43.6165 98.498 49.7906 98.5313H69.0094C75.1878 98.4948 81.1318 96.1617 85.6854 91.9858C90.2391 87.8099 93.0769 82.0897 93.6469 75.9375C93.7125 75.1875 93.75 74.4563 93.75 73.7531V47.7094H25.0406Z"/>
    <path d="M25.3125 77.5031H23.6344C20.1611 77.411 16.8611 75.9665 14.4371 73.4774C12.0131 70.9882 10.6566 67.651 10.6566 64.1766C10.6566 60.7021 12.0131 57.3649 14.4371 54.8758C16.8611 52.3866 20.1611 50.9421 23.6344 50.85H25.0406V73.7906C25.0406 74.4938 25.0406 75.225 25.1437 75.975L25.3125 77.5031ZM22.2281 53.7563C19.7109 54.1031 17.4042 55.3494 15.7346 57.2649C14.0649 59.1804 13.1451 61.6355 13.1451 64.1766C13.1451 66.7176 14.0649 69.1728 15.7346 71.0882C17.4042 73.0037 19.7109 74.2501 22.2281 74.5969C22.2281 74.325 22.2281 74.0531 22.2281 73.7906V53.7563Z"/>
    <path d="M95.1563 77.5031H93.5156L93.6469 75.9375C93.7125 75.1875 93.75 74.4563 93.75 73.7531V50.85H95.1563C98.6295 50.9421 101.93 52.3866 104.354 54.8758C106.778 57.3649 108.134 60.7021 108.134 64.1766C108.134 67.651 106.778 70.9882 104.354 73.4774C101.93 75.9665 98.6295 77.411 95.1563 77.5031V77.5031ZM96.5625 53.7563V73.7906C96.5625 74.0531 96.5625 74.325 96.5625 74.5969C99.0798 74.2501 101.386 73.0037 103.056 71.0882C104.726 69.1728 105.646 66.7176 105.646 64.1766C105.646 61.6355 104.726 59.1804 103.056 57.2649C101.386 55.3494 99.0798 54.1031 96.5625 53.7563V53.7563Z"/>
    <path d="M23.6344 41.7469C23.3393 41.7469 23.0516 41.654 22.8122 41.4814C22.5727 41.3089 22.3936 41.0653 22.3003 40.7853C22.207 40.5053 22.2041 40.203 22.2921 39.9213C22.3801 39.6396 22.5545 39.3927 22.7906 39.2156C33.35 31.2933 46.1945 27.0105 59.3953 27.0105C72.5962 27.0105 85.4407 31.2933 96 39.2156C96.2984 39.4394 96.4957 39.7725 96.5484 40.1417C96.6011 40.511 96.5051 40.886 96.2813 41.1844C96.0575 41.4827 95.7244 41.68 95.3552 41.7327C94.9859 41.7855 94.6109 41.6894 94.3125 41.4656C84.2401 33.9084 71.9876 29.823 59.3953 29.823C46.803 29.823 34.5506 33.9084 24.4782 41.4656C24.2347 41.6482 23.9387 41.7469 23.6344 41.7469V41.7469Z"/>
    <path d="M65.3532 23.8687C64.9802 23.8687 64.6225 23.7206 64.3588 23.4569C64.0951 23.1931 63.9469 22.8355 63.9469 22.4625C63.9748 21.8474 63.8778 21.233 63.6617 20.6565C63.4455 20.0799 63.1148 19.5532 62.6894 19.108C62.264 18.6629 61.7527 18.3086 61.1866 18.0665C60.6204 17.8244 60.0111 17.6996 59.3954 17.6996C58.7796 17.6996 58.1703 17.8244 57.6041 18.0665C57.038 18.3086 56.5268 18.6629 56.1014 19.108C55.676 19.5532 55.3452 20.0799 55.1291 20.6565C54.9129 21.233 54.8159 21.8474 54.8438 22.4625C54.8438 22.8355 54.6956 23.1931 54.4319 23.4569C54.1682 23.7206 53.8105 23.8687 53.4375 23.8687C53.0646 23.8687 52.7069 23.7206 52.4432 23.4569C52.1795 23.1931 52.0313 22.8355 52.0313 22.4625C51.996 21.4733 52.1603 20.4872 52.5145 19.5629C52.8687 18.6387 53.4055 17.7952 54.0928 17.083C54.7801 16.3707 55.6038 15.8042 56.5149 15.4173C57.4259 15.0304 58.4056 14.831 59.3954 14.831C60.3852 14.831 61.3648 15.0304 62.2759 15.4173C63.1869 15.8042 64.0106 16.3707 64.6979 17.083C65.3852 17.7952 65.922 18.6387 66.2762 19.5629C66.6304 20.4872 66.7947 21.4733 66.7594 22.4625C66.7594 22.8355 66.6113 23.1931 66.3475 23.4569C66.0838 23.7206 65.7261 23.8687 65.3532 23.8687Z"/>
    <path d="M83.2406 83.4375C82.8676 83.4375 82.51 83.2893 82.2462 83.0256C81.9825 82.7619 81.8344 82.4042 81.8344 82.0313V58.2188C81.8344 57.8458 81.9825 57.4881 82.2462 57.2244C82.51 56.9607 82.8676 56.8125 83.2406 56.8125C83.6136 56.8125 83.9712 56.9607 84.235 57.2244C84.4987 57.4881 84.6469 57.8458 84.6469 58.2188V82.0594C84.6395 82.4274 84.4881 82.7779 84.2252 83.0356C83.9622 83.2933 83.6087 83.4376 83.2406 83.4375Z"/>
    <path d="M77.2781 83.4375C76.9051 83.4375 76.5474 83.2893 76.2837 83.0256C76.02 82.7619 75.8718 82.4042 75.8718 82.0312V64.1812C75.8718 63.8083 76.02 63.4506 76.2837 63.1869C76.5474 62.9232 76.9051 62.775 77.2781 62.775C77.651 62.775 78.0087 62.9232 78.2724 63.1869C78.5362 63.4506 78.6843 63.8083 78.6843 64.1812V82.0594C78.677 82.4274 78.5256 82.7779 78.2626 83.0356C77.9997 83.2933 77.6462 83.4376 77.2781 83.4375Z"/>
</svg>
