<svg width="809" height="738" viewBox="0 0 809 738" fill="none" xmlns="http://www.w3.org/2000/svg">
<path d="M317 674C378 540 481 451 378 120C275 -211 695.176 204.161 317 674C378 328 164 355 133 353C102 351 133 278 182 288C231 298 419.4 387.6 317 674Z" fill="#2E1D15"/>
<path d="M182 66C230.626 128.18 338.124 223.682 230 184C121.876 144.318 133.374 3.81972 182 66Z" fill="#2E1D15"/>
<path d="M557 459C457 470 378 639 394 628C410 617 489 497 601 530C713 563 657 448 557 459Z" fill="#2E1D15"/>
<path d="M201.902 653.301L193.681 653.261C193.681 652.404 193.107 566.479 135.948 540.49L139.35 533C201.393 561.196 201.912 649.541 201.902 653.301Z" fill="#060709"/>
<path d="M230.456 651.275C224.347 641.773 212.089 637.57 197.789 637.57C177.461 637.57 160.974 645.831 160.974 666.159C160.974 686.508 177.461 703 197.789 703C212.094 703 224.352 694.769 230.456 682.848C227.861 677.818 226.288 672.218 226.288 666.159C226.288 660.136 227.861 655.272 230.456 651.275Z" fill="#A22C2A"/>
<path d="M304.052 666.159C304.052 686.508 287.555 703 267.217 703C246.888 703 230.396 686.513 230.396 666.159C230.396 645.831 246.883 637.57 267.217 637.57C287.55 637.57 304.052 645.831 304.052 666.159Z" fill="#A22C2A"/>
<path d="M271.002 653.301L263.451 653.261C263.451 650.947 262.811 596.379 205.521 570.35L208.656 563.47C270.478 591.565 271.002 652.681 271.002 653.301Z" fill="#060709"/>
<path d="M247.1 344.582C255.827 364.627 279.152 373.798 299.187 365.075C319.212 356.356 328.387 333.041 319.657 312.991C310.938 292.966 291.154 291.899 271.124 300.62C251.094 309.341 238.381 324.558 247.1 344.582Z" fill="#A22C2A"/>
<path d="M279.196 309.386L271.75 312.605C270.751 310.329 246.571 256.915 178.969 256.029L179.085 247.907C252.037 248.87 278.929 308.776 279.196 309.386Z" fill="#060709"/>
<path d="M595.359 148.642C584.648 134.17 564.234 131.125 549.769 141.831C535.312 152.531 532.262 172.938 542.976 187.414C553.676 201.871 569.75 199.067 584.211 188.364C598.672 177.661 606.06 163.099 595.359 148.642Z" fill="#A22C2A"/>
<path d="M581.375 190.264L586.741 186.284C587.969 187.922 617.393 226.206 671.763 214.215L673.197 220.749C614.522 233.684 581.704 190.703 581.375 190.264Z" fill="#060709"/>
<path d="M603.982 434.838C591.741 451.377 568.41 454.857 551.879 442.622C535.357 430.393 531.871 407.07 544.115 390.527C556.344 374.005 574.715 377.209 591.241 389.441C607.768 401.673 616.211 418.316 603.982 434.838Z" fill="#A22C2A"/>
<path d="M588 387.27L594.132 391.818C595.536 389.947 629.163 346.193 691.301 359.897L692.939 352.429C625.882 337.647 588.376 386.768 588 387.27Z" fill="#060709"/>
<path d="M513.445 703.653C510.975 724.089 492.405 738.65 471.979 736.181C451.563 733.714 437.001 715.154 439.472 694.713C441.939 674.297 459.5 668.001 479.921 670.469C500.342 672.937 515.913 683.237 513.445 703.653Z" fill="#A22C2A"/>
<path d="M472 682.77L479.631 683.095C479.744 680.757 483.032 625.65 542.182 602.123L539.347 595.019C475.519 620.415 472.03 682.144 472 682.77Z" fill="#060709"/>
</svg>
