<svg width="575" height="738" viewBox="0 0 575 738" fill="none" xmlns="http://www.w3.org/2000/svg">
    <path d="M197 674C258 540 361 451 258 120C155 -211 575.176 204.161 197 674C258 328 44 355 13 353C-18.0001 351 13 278 62 288C111 298 299.4 387.6 197 674Z" fill="#2E1D15"/>
    <path d="M62 66C110.626 128.18 218.124 223.682 110 184C1.87573 144.318 13.3736 3.81973 62 66Z" fill="#2E1D15"/>
    <path d="M437 459C337 470 258 639 274 628C290 617 369 497 481 530C593 563 537 448 437 459Z" fill="#2E1D15"/>
    <path d="M81.9022 653.301L73.6812 653.261C73.6812 652.404 73.1066 566.479 15.9476 540.49L19.3499 533C81.3931 561.196 81.9123 649.541 81.9022 653.301Z" fill="#060709"/>
    <path d="M110.456 651.275C104.347 641.773 92.089 637.57 77.7892 637.57C57.4609 637.57 40.9736 645.831 40.9736 666.159C40.9736 686.508 57.4609 703 77.7892 703C92.094 703 104.352 694.769 110.456 682.848C107.861 677.818 106.288 672.218 106.288 666.159C106.288 660.136 107.861 655.272 110.456 651.275Z" fill="#A22C2A"/>
    <path d="M184.052 666.159C184.052 686.508 167.555 703 147.217 703C126.888 703 110.396 686.513 110.396 666.159C110.396 645.831 126.883 637.57 147.217 637.57C167.55 637.57 184.052 645.831 184.052 666.159Z" fill="#A22C2A"/>
    <path d="M151.002 653.301L143.451 653.261C143.451 650.947 142.811 596.379 85.5212 570.35L88.6564 563.47C150.478 591.565 151.002 652.681 151.002 653.301Z" fill="#060709"/>
    <path d="M127.1 344.582C135.827 364.627 159.152 373.798 179.187 365.075C199.212 356.356 208.387 333.041 199.657 312.991C190.938 292.966 171.154 291.899 151.124 300.62C131.094 309.341 118.381 324.558 127.1 344.582Z" fill="#A22C2A"/>
    <path d="M159.196 309.386L151.75 312.605C150.751 310.329 126.571 256.915 58.9693 256.029L59.0847 247.907C132.037 248.87 158.929 308.776 159.196 309.386Z" fill="#060709"/>
    <path d="M475.359 148.642C464.648 134.17 444.234 131.125 429.769 141.831C415.312 152.531 412.262 172.938 422.976 187.414C433.676 201.871 449.75 199.067 464.211 188.364C478.672 177.661 486.06 163.099 475.359 148.642Z" fill="#A22C2A"/>
    <path d="M461.375 190.264L466.741 186.284C467.969 187.922 497.393 226.206 551.763 214.215L553.197 220.749C494.522 233.684 461.704 190.703 461.375 190.264Z" fill="#060709"/>
    <path d="M483.982 434.838C471.741 451.377 448.41 454.857 431.879 442.622C415.357 430.393 411.871 407.07 424.115 390.527C436.344 374.005 454.715 377.209 471.241 389.441C487.768 401.673 496.211 418.316 483.982 434.838Z" fill="#A22C2A"/>
    <path d="M468 387.27L474.132 391.818C475.536 389.947 509.163 346.193 571.301 359.897L572.939 352.429C505.882 337.647 468.376 386.768 468 387.27Z" fill="#060709"/>

    <path d="M393.445 703.653C390.975 724.089 372.405 738.65 351.979 736.181C331.563 733.714 317.001 715.154 319.472 694.713C321.939 674.297 339.5 668.001 359.921 670.469C380.342 672.937 395.913 683.237 393.445 703.653Z" fill="#A22C2A"/>
    <path d="M352 682.77L359.631 683.095C359.744 680.757 363.032 625.65 422.182 602.123L419.347 595.019C355.519 620.415 352.03 682.144 352 682.77Z" fill="#060709"/>
</svg>
