<svg width="809" height="738" fill="none" xmlns="http://www.w3.org/2000/svg"><path d="M317 674c61-134 164-223 61-554s317.176 84.161-61 554c61-346-153-319-184-321s0-75 49-65 237.4 99.6 135 386z" fill="#2E1D15"/><path d="M182 66c48.626 62.18 156.124 157.682 48 118-108.124-39.682-96.626-180.18-48-118zm375 393c-100 11-179 180-163 169s95-131 207-98 56-82-44-71z" fill="#2E1D15"/><path d="M201.902 653.301l-8.221-.04c0-.857-.574-86.782-57.733-112.771l3.402-7.49c62.043 28.196 62.562 116.541 62.552 120.301z" fill="#060709"/><path d="M230.456 651.275c-6.109-9.502-18.367-13.705-32.667-13.705-20.328 0-36.815 8.261-36.815 28.589 0 20.349 16.487 36.841 36.815 36.841 14.305 0 26.563-8.231 32.667-20.152-2.595-5.03-4.168-10.63-4.168-16.689 0-6.023 1.573-10.887 4.168-14.884z" fill="#A22C2A"/><path d="M304.052 666.159c0 20.349-16.497 36.841-36.835 36.841-20.329 0-36.821-16.487-36.821-36.841 0-20.328 16.487-28.589 36.821-28.589 20.333 0 36.835 8.261 36.835 28.589z" fill="#A22C2A"/><path d="M271.002 653.301l-7.551-.04c0-2.314-.64-56.882-57.93-82.911l3.135-6.88c61.822 28.095 62.346 89.211 62.346 89.831z" fill="#060709"/><path d="M247.1 344.582c8.727 20.045 32.052 29.216 52.087 20.493 20.025-8.719 29.2-32.034 20.47-52.084-8.719-20.025-28.503-21.092-48.533-12.371-20.03 8.721-32.743 23.938-24.024 43.962z" fill="#A22C2A"/><path d="M279.196 309.386l-7.446 3.219c-.999-2.276-25.179-55.69-92.781-56.576l.116-8.122c72.952.963 99.844 60.869 100.111 61.479z" fill="#060709"/><path d="M595.359 148.642c-10.711-14.472-31.125-17.517-45.59-6.811-14.457 10.7-17.507 31.107-6.793 45.583 10.7 14.457 26.774 11.653 41.235.95 14.461-10.703 21.849-25.265 11.148-39.722z" fill="#A22C2A"/><path d="M581.375 190.264l5.366-3.98c1.228 1.638 30.652 39.922 85.022 27.931l1.434 6.534c-58.675 12.935-91.493-30.046-91.822-30.485z" fill="#060709"/><path d="M603.982 434.838c-12.241 16.539-35.572 20.019-52.103 7.784-16.522-12.229-20.008-35.552-7.764-52.095 12.229-16.522 30.6-13.318 47.126-1.086 16.527 12.232 24.97 28.875 12.741 45.397z" fill="#A22C2A"/><path d="M588 387.27l6.132 4.548c1.404-1.871 35.031-45.625 97.169-31.921l1.638-7.468C625.882 337.647 588.376 386.768 588 387.27z" fill="#060709"/><path d="M513.445 703.653c-2.47 20.436-21.04 34.997-41.466 32.528-20.416-2.467-34.978-21.027-32.507-41.468 2.467-20.416 20.028-26.712 40.449-24.244s35.992 12.768 33.524 33.184z" fill="#A22C2A"/><path d="M472 682.77l7.631.325c.113-2.338 3.401-57.445 62.551-80.972l-2.835-7.104C475.519 620.415 472.03 682.144 472 682.77z" fill="#060709"/></svg>