<svg width="260" height="260" fill="none" xmlns="http://www.w3.org/2000/svg"><path fill="#2E1D15" d="M0 0h260v260H0z"/><path d="M184.247 235a7.084 7.084 0 006.719-4.843l23.294-70.194c2.954-2.062 6.171-4.774 9.148-8.265 7.9-9.264 15.692-25.887 7.953-52.476-11.558-39.724-71.883-39.66-107.938-39.664l-2.531.001c-11.425 0-19.181-4.248-23.711-12.99-3.653-7.047-3.762-14.445-3.763-14.486a7.084 7.084 0 00-10.522-6.191c-2.152 1.195-52.747 29.771-57.09 72.735-2.037 20.136 4.483 39.678 23.066 58.208l24.985 73.322a7.082 7.082 0 006.72 4.843h103.67zM39.894 100.091c2.033-20.294 17.817-37.46 31.095-48.514-2.368 9.377-3.307 20.782 1.657 30.344 5.203 10.025 15.42 15.944 30.366 17.593 33.793 3.727 53.481 8.558 65.831 16.156 12.313 7.573 17.914 18.405 18.576 36.048H65.955c-19.032-16.934-27.798-34.293-26.061-51.627zm99.598 120.745v-54.954h23.827l-9.158 54.954h-14.669zm-28.832 0l-9.158-54.954h23.826v54.954H110.66zm-43.297-54.954h19.78l9.157 54.954H85.682l-18.319-54.954zm111.78 54.954h-10.621l9.157-54.954h19.78l-18.316 54.954zm33.859-78.771c-3.982 4.84-8.691 7.656-11.435 9.012-.876-22.292-8.942-37.408-25.303-47.473-14.439-8.881-35.212-14.145-71.699-18.169-9.939-1.096-16.445-4.466-19.337-10.018-3.13-6.006-2.226-14.315-.225-21.584 5.094 9.37 15.377 19.891 35.889 19.891l2.54-.001c32.099-.012 85.743-.053 94.331 29.456 4.72 16.222 3.119 29.305-4.761 38.886z" fill="#F6F7F1"/></svg>