<svg version="1.1" id="cupcake" xmlns="http://www.w3.org/2000/svg" x="0" y="0" viewBox="0 0 297 297" xml:space="preserve"><path d="M225.221 297c4.312 0 8.139-2.76 9.502-6.849l32.945-99.275c4.177-2.916 8.727-6.751 12.938-11.689 11.172-13.102 22.192-36.611 11.248-74.216-16.347-56.181-101.664-56.09-152.656-56.096l-3.58.002c-16.158 0-27.127-6.009-33.534-18.371-5.166-9.967-5.32-20.43-5.321-20.489a10.015 10.015 0 00-14.881-8.756c-3.044 1.69-74.6 42.106-80.743 102.869-2.88 28.478 6.341 56.116 32.623 82.323l35.336 103.698A10.016 10.016 0 0078.601 297h146.62zM21.064 106.2c2.876-28.702 25.199-52.979 43.978-68.613-3.349 13.262-4.678 29.392 2.343 42.916 7.358 14.178 21.809 22.549 42.946 24.881 47.793 5.271 75.637 12.104 93.104 22.849 17.414 10.711 25.335 26.031 26.272 50.982H57.922c-26.917-23.949-39.315-48.5-36.858-73.015zm140.861 170.768v-77.721h33.698l-12.952 77.721h-20.746zm-40.777 0l-12.952-77.721h33.697v77.721h-20.745zm-61.234-77.721h27.974l12.951 77.721H85.821l-25.907-77.721zm158.088 77.721h-15.021l12.951-77.721h27.974l-25.904 77.721zm47.886-111.404c-5.631 6.844-12.291 10.827-16.172 12.745-1.239-31.527-12.647-52.906-35.786-67.14-20.421-12.561-49.799-20.006-101.402-25.696-14.057-1.551-23.259-6.317-27.349-14.169-4.427-8.494-3.147-20.245-.317-30.526 7.203 13.253 21.747 28.132 50.756 28.132l3.593-.002c45.397-.017 121.265-.075 133.411 41.66 6.676 22.942 4.411 41.445-6.734 54.996z" fill="#f6f7f1"/></svg>