<svg width="50" height="50" fill="none" xmlns="http://www.w3.org/2000/svg"><path d="M42.688 15.667a.394.394 0 010-.167.351.351 0 010-.146v-.187l-.126-.313a1.002 1.002 0 00-.187-.229l-.188-.167h-.104l-8.208-5.187-7.75-4.792a1.77 1.77 0 00-.604-.312h-.167a1.708 1.708 0 00-.562 0h-.209a2.354 2.354 0 00-.687.27L8.333 14.126l-.187.146-.188.166-.208.146-.104.125-.125.313v.312c-.02.139-.02.279 0 .417v18.188a2.083 2.083 0 00.979 1.77l15.625 9.667.313.125h.166a1.79 1.79 0 001.084 0h.166l.313-.125 15.5-9.52a2.083 2.083 0 00.979-1.772V15.896s.041-.146.041-.23zM25 8.687l3.708 2.292-11.645 7.209-3.73-2.292L25 8.688zm-2.083 31.25l-11.459-7V19.626l11.459 7.083v13.23zM25 23.043l-3.98-2.396 11.647-7.23 4 2.48L25 23.042zm13.542 9.833L27.083 40V26.708l11.459-7.083v13.25z" fill="#2e1d15"/></svg>