<svg width="50" height="50" fill="none" xmlns="http://www.w3.org/2000/svg"><path d="M47.604 38.438c-4.791-8.021-16.666-16.042-23.125-16.876a2.084 2.084 0 00-2.291 2.709 2.083 2.083 0 001.77 1.354c2.917.52 7.917 3.125 12.396 6.667-3.75 3.541-9.375 5.104-13.958 3.75-8.021-2.292-12.084-12.605-15-21.146l7.917-1.146c6.874-1.25 12.812-2.292 16.77.417 3.959 2.708 4.167 5.208 4.792 8.646l2.708 1.875a1.041 1.041 0 001.667-.938c-.625-4.896-2.188-9.792-6.77-12.917-4.584-3.125-12.397-2.5-19.897-1.25A83.955 83.955 0 014.48 10.937H3.125a.937.937 0 00-.938 1.355l.417 1.25C5.834 23.333 10.312 36.77 21.146 40c1.528.412 3.104.622 4.687.625a20.312 20.312 0 0013.75-5.52 30.626 30.626 0 014.48 5.52 1.979 1.979 0 001.77 1.042c.484.007.958-.139 1.355-.417a2.187 2.187 0 00.416-2.813z" fill="#2e1d15"/></svg>