<svg width="50" height="54" fill="none" xmlns="http://www.w3.org/2000/svg"><path d="M43.301 35.888c-3.363-1.77-6.553-3.026-9.375-3.631a15.396 15.396 0 002.83-5.774 3.43 3.43 0 002.134-3.173v-5.3a3.428 3.428 0 00-1.817-3.024C36.359 9.015 30.95 4.167 25 4.167c-5.949 0-11.358 4.848-12.072 10.818a3.428 3.428 0 00-1.817 3.023v5.303c0 1.433.883 2.66 2.134 3.17a15.398 15.398 0 002.83 5.776c-2.822.604-6.012 1.861-9.375 3.63a4.745 4.745 0 00-2.534 4.196v4.014c0 .959.777 1.736 1.736 1.736h38.194c.959 0 1.736-.777 1.736-1.736v-4.014a4.741 4.741 0 00-2.532-4.195zm-26.98-19.569c0-4.622 4.187-8.68 8.68-8.68 4.492 0 8.68 4.058 8.68 8.68v6.945c0 .715-.083 1.429-.237 2.129-2.385.758-5.613 1.343-8.443 1.343a1.736 1.736 0 100 3.472c2.187 0 4.542-.3 6.68-.762-.73 1.076-1.616 2.013-2.587 2.73a1.706 1.706 0 00-.141.09c-.966.686-1.982 1.132-2.982 1.312-.338.06-.595.09-.822.1l-.148.002-.153-.003a6.014 6.014 0 01-.768-.09c-1.05-.19-2.065-.635-3.03-1.322a1.72 1.72 0 00-.143-.09c-2.593-1.915-4.587-5.4-4.587-8.911v-6.945zm26.04 26.042H7.639v-2.278c0-.47.263-.904.679-1.123 3.7-1.947 7.121-3.198 9.844-3.543h1.335c1.616 1.045 3.412 1.678 5.252 1.731a7.256 7.256 0 00.502 0c1.84-.053 3.636-.686 5.253-1.731h1.334c2.724.345 6.145 1.596 9.846 3.543.415.218.677.653.677 1.123v2.278z" fill="#2e1d15"/></svg>