<svg width="50" height="50" fill="none" xmlns="http://www.w3.org/2000/svg"><path d="M46.406 25.606h-1.77v-3.679a4.476 4.476 0 00-4.471-4.47H35.35v-8.46H0v28.44h4.6a5.106 5.106 0 004.862 3.566 5.107 5.107 0 004.863-3.567h22.009a5.107 5.107 0 004.862 3.567 5.107 5.107 0 004.863-3.567H50V29.2a3.598 3.598 0 00-3.594-3.594zM9.462 37.942a2.038 2.038 0 01-2.036-2.036 2.04 2.04 0 012.036-2.037 2.04 2.04 0 012.037 2.037 2.038 2.038 0 01-2.037 2.036zm22.827-3.567H14.325a5.093 5.093 0 00-.07-.208l-.022-.056a4.932 4.932 0 00-.27-.594l-.025-.05a5.29 5.29 0 00-.114-.197l-.02-.033a5.138 5.138 0 00-.102-.159l-.04-.058a5.232 5.232 0 00-.24-.32l-.038-.048a4.992 4.992 0 00-.305-.335l-.047-.046a4.97 4.97 0 00-.295-.268l-.051-.043a5.368 5.368 0 00-.164-.129l-.014-.01a5.166 5.166 0 00-.185-.133l-.05-.032a4.786 4.786 0 00-.343-.21c-.021-.01-.043-.023-.064-.034a4.979 4.979 0 00-.163-.084l-.04-.02a5.167 5.167 0 00-.21-.095l-.047-.02a4.94 4.94 0 00-.386-.141l-.076-.024a5.241 5.241 0 00-.163-.046l-.06-.017a5.174 5.174 0 00-.227-.052l-.037-.007a4.94 4.94 0 00-.194-.035l-.076-.01a5.229 5.229 0 00-.409-.043l-.075-.004a5.182 5.182 0 00-.481 0l-.075.005a4.981 4.981 0 00-.409.041l-.077.011a5.29 5.29 0 00-.193.035l-.037.007a5.149 5.149 0 00-.227.052l-.061.017c-.055.014-.109.03-.163.046l-.076.024a5.006 5.006 0 00-.385.142c-.016.006-.033.012-.049.02-.07.03-.14.06-.208.094l-.042.02a4.959 4.959 0 00-.161.084l-.065.035a4.766 4.766 0 00-.136.079l-.065.039-.14.09-.051.033a5.228 5.228 0 00-.186.133l-.014.01c-.055.042-.11.085-.163.13a5.352 5.352 0 00-.173.149c-.02.015-.038.032-.056.049l-.118.112-.046.046a5.043 5.043 0 00-.154.161l-.002.002-.15.172-.038.048a5.464 5.464 0 00-.102.13l-.045.06a5.393 5.393 0 00-.092.13l-.04.058a5.318 5.318 0 00-.102.16c-.007.01-.014.02-.02.032a3.87 3.87 0 00-.114.197c-.01.016-.017.033-.026.05-.027.05-.054.101-.079.153l-.033.069a5.015 5.015 0 00-.158.372l-.02.056a5.1 5.1 0 00-.072.208H3.061v-5.71H32.29v5.71zm0-16.919v8.147H3.061V12.058H32.29v5.398zm3.062 3.062h4.814a1.41 1.41 0 011.409 1.41v3.675h-6.223v-5.085zm5.845 17.424a2.038 2.038 0 01-2.036-2.036 2.04 2.04 0 012.036-2.037 2.04 2.04 0 012.037 2.037 2.039 2.039 0 01-2.037 2.036zm4.863-3.567a5.093 5.093 0 00-.07-.208l-.022-.056a5.033 5.033 0 00-.063-.159l-.03-.07a5.22 5.22 0 00-.065-.143l-.033-.07a5.407 5.407 0 00-.078-.153l-.026-.049a5.037 5.037 0 00-.114-.197l-.02-.033a5.172 5.172 0 00-.102-.159l-.04-.058a4.983 4.983 0 00-.24-.32l-.038-.048a4.998 4.998 0 00-.305-.335l-.047-.046a4.775 4.775 0 00-.294-.267l-.052-.044a5.335 5.335 0 00-.164-.129l-.014-.01a5.157 5.157 0 00-.186-.133l-.05-.033a4.684 4.684 0 00-.342-.208l-.064-.035a5.243 5.243 0 00-.162-.084l-.041-.02a5.095 5.095 0 00-.209-.095l-.048-.02a5.121 5.121 0 00-.386-.14l-.076-.025a5.209 5.209 0 00-.162-.046l-.062-.017a5.136 5.136 0 00-.226-.052l-.038-.007a4.915 4.915 0 00-.193-.035l-.077-.01a4.926 4.926 0 00-.408-.042l-.075-.005a5.18 5.18 0 00-.481 0l-.076.005a4.748 4.748 0 00-.408.041l-.077.011c-.065.01-.13.022-.193.035l-.037.007a5.178 5.178 0 00-.227.052l-.06.017-.164.046-.075.024-.15.05-.071.026a4.775 4.775 0 00-.166.066c-.016.006-.032.012-.047.02-.07.03-.14.06-.21.094l-.04.02a5.415 5.415 0 00-.163.084l-.063.035a4.923 4.923 0 00-.138.079l-.064.039-.142.09-.05.033a4.994 4.994 0 00-.185.132l-.014.011c-.055.042-.11.085-.164.129l-.051.043a5.105 5.105 0 00-.294.268l-.047.046a5.173 5.173 0 00-.154.16l-.002.003c-.051.056-.1.114-.15.172l-.038.048a5.37 5.37 0 00-.102.13l-.045.06a5.31 5.31 0 00-.092.13l-.04.058a5.543 5.543 0 00-.102.159l-.02.032c-.04.066-.078.131-.114.198-.01.016-.018.033-.026.05a5.36 5.36 0 00-.176.364l-.031.071a5.179 5.179 0 00-.063.159l-.021.056a5.042 5.042 0 00-.071.208h-.982v-5.71h6.223v.002h4.832c.293 0 .532.24.532.533v5.175h-.879z" fill="#2e1d15"/></svg>