<svg width="24" height="24" viewBox="0 0 24 24" fill="none" xmlns="http://www.w3.org/2000/svg">
    <path d="M18.1997 24C18.5481 24 18.8574 23.777 18.9675 23.4465L21.6297 15.4243C21.9673 15.1887 22.3349 14.8788 22.6752 14.4797C23.578 13.421 24.4685 11.5213 23.5842 8.4825C22.2632 3.94262 15.3689 3.94997 11.2483 3.94949L10.959 3.94965C9.65333 3.94965 8.76695 3.46407 8.24921 2.46512C7.83175 1.65971 7.81931 0.814213 7.81923 0.809446C7.81923 0.522658 7.66747 0.257203 7.42028 0.111749C7.17301 -0.033625 6.86731 -0.0375037 6.61672 0.10189C6.37074 0.238456 0.588441 3.50439 0.0920369 8.41454C-0.14069 10.7158 0.604441 12.9492 2.72824 15.0669L5.58367 23.4465C5.69381 23.777 6.00315 24 6.35159 24H18.1997V24ZM1.70214 8.58181C1.93454 6.26246 3.73842 4.30068 5.25592 3.03732C4.98529 4.109 4.8779 5.41244 5.44525 6.50528C6.03983 7.65098 7.20759 8.32743 8.91563 8.51587C12.7777 8.94181 15.0277 9.49397 16.4392 10.3623C17.8464 11.2278 18.4865 12.4658 18.5622 14.482H4.68056C2.50545 12.5467 1.50359 10.5628 1.70214 8.58181ZM13.0848 22.3812V16.1008H15.8079L14.7613 22.3812H13.0848ZM9.78973 22.3812L8.74311 16.1008H11.4661V22.3812H9.78973ZM4.84153 16.1008H7.10206L8.1486 22.3812H6.93503L4.84153 16.1008ZM17.6163 22.3812H16.4025L17.449 16.1008H19.7096L17.6163 22.3812ZM21.4859 13.3789C21.0309 13.932 20.4927 14.2538 20.1791 14.4088C20.0789 11.8612 19.1571 10.1336 17.2873 8.98334C15.6371 7.96831 13.2631 7.3667 9.09317 6.9069C7.95725 6.78157 7.21365 6.39644 6.88315 5.76193C6.52541 5.07555 6.62884 4.12597 6.85753 3.29518C7.43959 4.36613 8.61486 5.56848 10.959 5.56848L11.2494 5.56831C14.9178 5.56694 21.0486 5.56225 22.0301 8.93478C22.5695 10.7887 22.3865 12.2839 21.4859 13.3789Z" fill="#F6F7F1"/>
</svg>
