<svg width="37" height="37" viewBox="0 0 37 37" fill="none" xmlns="http://www.w3.org/2000/svg">
    <path d="M18.5 0.73999C8.69129 0.73999 0.73999 8.69129 0.73999 18.5C0.73999 28.3087 8.69129 36.26 18.5 36.26C28.3087 36.26 36.26 28.3087 36.26 18.5C36.26 8.69129 28.3087 0.73999 18.5 0.73999ZM25.3302 20.7773C25.3302 20.7773 26.9008 22.3276 27.2875 23.0473C27.2986 23.0621 27.3041 23.0769 27.3078 23.0843C27.4651 23.3488 27.5021 23.5542 27.4244 23.7077C27.2949 23.963 26.8509 24.0888 26.6992 24.0999H23.9242C23.7318 24.0999 23.3285 24.05 22.8401 23.7133C22.4645 23.4506 22.0945 23.0195 21.7338 22.5996C21.1954 21.9743 20.7292 21.4341 20.2593 21.4341C20.1997 21.434 20.1403 21.4434 20.0836 21.4618C19.7284 21.5765 19.2733 22.0834 19.2733 23.4339C19.2733 23.8557 18.9403 24.0981 18.7053 24.0981H17.4344C17.0015 24.0981 14.7463 23.9464 12.7483 21.8392C10.3026 19.2585 8.10114 14.0822 8.08264 14.0341C7.94389 13.6992 8.23064 13.5198 8.54329 13.5198H11.346C11.7197 13.5198 11.8418 13.7473 11.9269 13.949C12.0268 14.1839 12.3931 15.1182 12.9944 16.169C13.9693 17.8821 14.5669 18.5777 15.046 18.5777C15.1359 18.5766 15.2241 18.5538 15.3032 18.5111C15.9285 18.1633 15.8119 15.934 15.7842 15.4715C15.7842 15.3846 15.7823 14.4744 15.4623 14.0378C15.2329 13.7214 14.8425 13.6012 14.6057 13.5568C14.7016 13.4245 14.8279 13.3173 14.9739 13.2441C15.4031 13.0295 16.1764 12.9981 16.9441 12.9981H17.3715C18.204 13.0092 18.4186 13.0628 18.7201 13.1387C19.3306 13.2848 19.3436 13.6789 19.2899 15.0275C19.2733 15.4105 19.2566 15.8434 19.2566 16.354C19.2566 16.465 19.2511 16.5834 19.2511 16.7092C19.2326 17.3955 19.2104 18.1744 19.6951 18.4944C19.7583 18.5341 19.8314 18.5552 19.906 18.5555C20.0743 18.5555 20.5812 18.5555 21.9539 16.2004C22.3773 15.4424 22.7452 14.6547 23.0547 13.8435C23.0824 13.7954 23.1638 13.6474 23.26 13.5901C23.331 13.5539 23.4098 13.5355 23.4894 13.5364H26.7843C27.1432 13.5364 27.3892 13.5901 27.4355 13.7288C27.5169 13.949 27.4207 14.6205 25.9166 16.6574L25.2451 17.5435C23.8816 19.3306 23.8816 19.4213 25.3302 20.7773V20.7773Z" fill="#f6f7f1"/>
</svg>
