<svg version="1.0" xmlns="http://www.w3.org/2000/svg" width="933.333" height="933.333" viewBox="0 0 700 700"><path d="M0 350v350h700V0H0v350zM237.3 68.1c4.3 1.2 10.1 5.9 12.2 9.9.7 1.4 1.9 7.3 2.5 12.9 4.2 38 23.2 61.5 54.6 67.5 5.8 1.1 18.9 1.6 48.9 2.1 43.6.6 65.8 1.6 90 4 81.5 8.2 136.8 32.5 162.8 71.6 9.5 14.3 14.4 27.2 19.3 50.2 3.5 16.6 4.4 44.3 2 59.7-5 31.6-22.1 61.2-45.7 79.2l-6.9 5.3-32 95.9c-17.5 52.8-32.7 97.1-33.8 98.5-2.7 3.7-6.4 6.1-10.8 7.1-5.2 1.2-282.6 1.2-287.8 0-4.7-1-8.4-3.6-11.2-7.7-1.1-1.6-17.2-47.7-35.9-102.4l-33.8-99.4-8.4-9.1c-27.2-29.5-43.7-59.9-51.5-95-1.9-8.6-2.2-13-2.2-33.9-.1-21.5.2-25.1 2.2-34.5 11.4-52.3 46-101.7 102.6-146.8 17.9-14.3 44.7-32 52.4-34.8 4.6-1.6 5.7-1.7 10.5-.3z"/><path d="M177.5 151c-35.7 32.6-58.1 66.5-67.1 101.6-2.6 9.8-2.9 12.6-2.9 27.9 0 13.2.4 18.8 1.9 25 7.4 31.9 25.8 61.8 56.3 91.7l11 10.8h327.9l-.8-9.8c-3-36.9-15.5-62-40.1-80.4-31.2-23.2-77.3-36.2-169.2-47.8-32.5-4.1-41-5.8-54-10.9-26.6-10.3-44.3-29.6-51.7-56.6-3.1-11.6-3.2-38.6 0-53 1.2-5.4 2-10 1.9-10.2-.2-.1-6.1 5.1-13.2 11.7z"/><path d="M226.5 154.7c-8.7 43.3 5.6 66.4 45.5 73.7 4.7.9 18 2.7 29.5 4.1 139.2 16.6 201.4 46.6 228.2 109.8 6.2 14.7 12.2 42 12.3 56.2.1 7.9.9 8.4 7.5 4.4 19.7-11.9 33.6-29.7 40-51.4 2.2-7.3 2.8-11.8 3.2-23.6 1.1-30.7-6.7-59.7-20.7-76.6-13.7-16.5-39-30.3-71.1-38.7-36.8-9.7-68.1-12.5-159.4-14.5-36.9-.8-39.5-1-48.6-3.4-24.6-6.4-46.5-21.8-58.9-41.5-2.5-3.9-4.8-7.1-5.1-7.1-.4-.1-1.4 3.8-2.4 8.6zM182 447.8c0 .4 10.9 33.6 24.3 73.7l24.4 73 14.1.3c7.8.1 14.2-.1 14.2-.5 0-.5-5.4-33.8-12.1-74.1L234.7 447h-26.4c-14.4 0-26.3.3-26.3.8zm103.1 69.9c6.5 39 12.1 72.3 12.4 74l.6 3.3H337V447h-63.7l11.8 70.7zM376 521v74h38.9l.6-3.2c.3-1.8 5.9-35.1 12.4-74.1l11.8-70.7H376v74zm90.1-.8c-6.7 40.3-12.1 73.6-12.1 74.1 0 .4 6.4.6 14.2.5l14.1-.3 24.4-73c13.4-40.1 24.3-73.3 24.3-73.7 0-.5-11.9-.8-26.3-.8h-26.4l-12.2 73.2z"/></svg>